<?xml version="1.0" encoding="UTF-8"?>
<svg xmlns="http://www.w3.org/2000/svg" xmlns:xlink="http://www.w3.org/1999/xlink" width="24pt" height="24pt" viewBox="0 0 24 24" version="1.1">
<g id="surface1">
<path style=" stroke:none;fill-rule:nonzero;fill-opacity:1;" d="M 12.011719 16 C 11.738281 16 11.488281 15.898438 11.300781 15.710938 C 11.101562 15.511719 11.011719 15.28125 11.011719 15 C 11 14.449219 11.441406 14.011719 11.988281 14 C 12 14 12 14 12.011719 14 C 12.289062 14 12.519531 14.101562 12.71875 14.289062 C 12.898438 14.480469 13 14.71875 13 14.988281 C 13 15.261719 12.898438 15.5 12.710938 15.699219 C 12.519531 15.898438 12.28125 16 12.011719 16 Z M 11.128906 12.339844 C 11.128906 11.890625 11.230469 11.5 11.421875 11.179688 C 11.609375 10.851562 11.949219 10.480469 12.421875 10.058594 C 12.699219 9.808594 12.898438 9.589844 13.03125 9.398438 C 13.160156 9.210938 13.21875 9 13.21875 8.761719 C 13.21875 8.46875 13.109375 8.230469 12.898438 8.019531 C 12.691406 7.820312 12.398438 7.71875 12.050781 7.71875 C 11.679688 7.71875 11.308594 7.820312 11.089844 8.019531 C 10.878906 8.21875 10.691406 8.46875 10.691406 9 L 9 9 C 9 7.988281 9.460938 7.269531 9.96875 6.789062 C 10.53125 6.28125 11.25 6 12 6 C 12.589844 6 13.109375 6.121094 13.570312 6.351562 C 14.03125 6.578125 14.359375 6.898438 14.621094 7.308594 C 14.878906 7.71875 15 8.171875 15 8.660156 C 15 9.148438 14.898438 9.558594 14.691406 9.910156 C 14.480469 10.261719 14.210938 10.621094 13.800781 11 C 13.480469 11.300781 13.269531 11.558594 13.148438 11.769531 C 13.03125 11.980469 12.96875 12.261719 12.96875 12.578125 L 12.96875 13 L 11.121094 13 L 11.121094 12.339844 Z M 18 10.199219 C 18 6.570312 15.351562 4 12 4 C 8.648438 4 6 6.570312 6 10.199219 C 6 12.539062 7.949219 15.640625 12 19.339844 C 16.050781 15.640625 18 12.539062 18 10.199219 Z M 12 2 C 16.199219 2 20 5.21875 20 10.199219 C 20 13.519531 17.328125 17.449219 12 22 C 6.671875 17.449219 4 13.519531 4 10.199219 C 4 5.21875 7.800781 2 12 2 Z M 12 2 "/>
</g>
</svg>
